//notes in the melody:
int melody[] = {
  NOTE_E4, NOTE_E4, NOTE_E4, NOTE_E4, NOTE_E4, NOTE_E4, NOTE_E4, NOTE_G4, NOTE_C4, NOTE_D4,
  NOTE_E4, NOTE_F4, NOTE_F4, NOTE_F4, NOTE_F4, NOTE_F4, NOTE_E4, NOTE_E4, NOTE_E4, NOTE_E4,
  NOTE_E4, NOTE_D4, NOTE_D4, NOTE_E4, NOTE_D4, NOTE_G4, 
  NOTE_E4, NOTE_E4, NOTE_E4, NOTE_E4, NOTE_E4, NOTE_E4, NOTE_E4, NOTE_G4, NOTE_C4, NOTE_D4,
  NOTE_E4, NOTE_F4, NOTE_F4, NOTE_F4, NOTE_F4, NOTE_F4, NOTE_E4, NOTE_E4, NOTE_E4, NOTE_E4,
  NOTE_E4, NOTE_D4, NOTE_D4, NOTE_E4, NOTE_D4, NOTE_G4
};

//note durations: 4 = quarter note, 8 = eighth note, etc
int noteDurations[] = {
  4, 4, 2, 4, 4, 2, 4, 4, 4, 4, 
  1, 4, 4, 3, 8, 4, 4, 4, 8, 8,
  4, 4, 4, 4, 2, 2, 
  4, 4, 2, 4, 4, 2, 4, 4, 4, 4, 
  1, 4, 4, 3, 8, 4, 4, 4, 8, 8,
  4, 4, 4, 4, 2, 2
};
